<?xml version="1.0" encoding="UTF-8" standalone="no"?>
<!-- Created with Inkscape (http://www.inkscape.org/) -->

<svg
   xmlns:dc="http://purl.org/dc/elements/1.1/"
   xmlns:cc="http://creativecommons.org/ns#"
   xmlns:rdf="http://www.w3.org/1999/02/22-rdf-syntax-ns#"
   xmlns:svg="http://www.w3.org/2000/svg"
   xmlns="http://www.w3.org/2000/svg"
   xmlns:sodipodi="http://sodipodi.sourceforge.net/DTD/sodipodi-0.dtd"
   xmlns:inkscape="http://www.inkscape.org/namespaces/inkscape"
   width="210mm"
   height="297mm"
   viewBox="0 0 210 297"
   version="1.1"
   id="svg8"
   inkscape:version="0.92.3 (2405546, 2018-03-11)"
   sodipodi:docname="anm_figre_suggestion.svg">
  <defs
     id="defs2" />
  <sodipodi:namedview
     id="base"
     pagecolor="#ffffff"
     bordercolor="#666666"
     borderopacity="1.0"
     inkscape:pageopacity="0.0"
     inkscape:pageshadow="2"
     inkscape:zoom="0.98994949"
     inkscape:cx="298.73071"
     inkscape:cy="897.99672"
     inkscape:document-units="mm"
     inkscape:current-layer="layer1"
     showgrid="false"
     inkscape:window-width="1920"
     inkscape:window-height="1017"
     inkscape:window-x="1272"
     inkscape:window-y="-8"
     inkscape:window-maximized="1" />
  <metadata
     id="metadata5">
    <rdf:RDF>
      <cc:Work
         rdf:about="">
        <dc:format>image/svg+xml</dc:format>
        <dc:type
           rdf:resource="http://purl.org/dc/dcmitype/StillImage" />
        <dc:title></dc:title>
      </cc:Work>
    </rdf:RDF>
  </metadata>
  <g
     inkscape:label="Layer 1"
     inkscape:groupmode="layer"
     id="layer1">
    <rect
       style="opacity:1;vector-effect:none;fill:#808080;fill-opacity:1;stroke:none;stroke-width:0.5;stroke-linecap:butt;stroke-linejoin:miter;stroke-miterlimit:4;stroke-dasharray:none;stroke-dashoffset:0;stroke-opacity:1"
       id="rect815"
       width="5.3453903"
       height="64.946495"
       x="39.823158"
       y="75.433556" />
    <rect
       y="75.433556"
       x="58.264755"
       height="64.946495"
       width="5.3453903"
       id="rect817"
       style="opacity:1;vector-effect:none;fill:#808080;fill-opacity:1;stroke:none;stroke-width:0.5;stroke-linecap:butt;stroke-linejoin:miter;stroke-miterlimit:4;stroke-dasharray:none;stroke-dashoffset:0;stroke-opacity:1" />
    <rect
       style="opacity:1;vector-effect:none;fill:#808080;fill-opacity:1;stroke:none;stroke-width:0.5;stroke-linecap:butt;stroke-linejoin:miter;stroke-miterlimit:4;stroke-dasharray:none;stroke-dashoffset:0;stroke-opacity:1"
       id="rect819"
       width="5.3454061"
       height="23.786987"
       x="-145.72545"
       y="39.823158"
       transform="rotate(-90)" />
    <rect
       transform="rotate(-90)"
       y="58.264755"
       x="-75.433556"
       height="23.786987"
       width="5.3454061"
       id="rect821"
       style="opacity:1;vector-effect:none;fill:#808080;fill-opacity:1;stroke:none;stroke-width:0.5;stroke-linecap:butt;stroke-linejoin:miter;stroke-miterlimit:4;stroke-dasharray:none;stroke-dashoffset:0;stroke-opacity:1" />
    <rect
       style="opacity:1;vector-effect:none;fill:#808080;fill-opacity:1;stroke:none;stroke-width:0.5;stroke-linecap:butt;stroke-linejoin:miter;stroke-miterlimit:4;stroke-dasharray:none;stroke-dashoffset:0;stroke-opacity:1"
       id="rect823"
       width="5.3454061"
       height="23.786987"
       x="-145.72546"
       y="76.706352"
       transform="rotate(-90)" />
    <rect
       style="opacity:1;vector-effect:none;fill:#808080;fill-opacity:1;stroke:none;stroke-width:0.5;stroke-linecap:butt;stroke-linejoin:miter;stroke-miterlimit:4;stroke-dasharray:none;stroke-dashoffset:0;stroke-opacity:1"
       id="rect825"
       width="5.3453903"
       height="64.946495"
       x="76.706352"
       y="75.433556" />
    <rect
       y="75.433556"
       x="95.147949"
       height="64.946495"
       width="5.3453903"
       id="rect827"
       style="opacity:1;vector-effect:none;fill:#808080;fill-opacity:1;stroke:none;stroke-width:0.5;stroke-linecap:butt;stroke-linejoin:miter;stroke-miterlimit:4;stroke-dasharray:none;stroke-dashoffset:0;stroke-opacity:1" />
    <rect
       transform="rotate(-90)"
       y="95.147949"
       x="-75.433556"
       height="23.786987"
       width="5.3454061"
       id="rect829"
       style="opacity:1;vector-effect:none;fill:#808080;fill-opacity:1;stroke:none;stroke-width:0.5;stroke-linecap:butt;stroke-linejoin:miter;stroke-miterlimit:4;stroke-dasharray:none;stroke-dashoffset:0;stroke-opacity:1" />
    <rect
       y="75.433556"
       x="113.58955"
       height="64.946495"
       width="5.3453903"
       id="rect831"
       style="opacity:1;vector-effect:none;fill:#808080;fill-opacity:1;stroke:none;stroke-width:0.5;stroke-linecap:butt;stroke-linejoin:miter;stroke-miterlimit:4;stroke-dasharray:none;stroke-dashoffset:0;stroke-opacity:1" />
    <rect
       style="opacity:1;vector-effect:none;fill:#808080;fill-opacity:1;stroke:none;stroke-width:0.5;stroke-linecap:butt;stroke-linejoin:miter;stroke-miterlimit:4;stroke-dasharray:none;stroke-dashoffset:0;stroke-opacity:1"
       id="rect833"
       width="5.3453903"
       height="64.946495"
       x="132.03114"
       y="75.433556" />
    <rect
       transform="rotate(-90)"
       y="113.58955"
       x="-145.72545"
       height="23.786987"
       width="5.3454061"
       id="rect835"
       style="opacity:1;vector-effect:none;fill:#808080;fill-opacity:1;stroke:none;stroke-width:0.5;stroke-linecap:butt;stroke-linejoin:miter;stroke-miterlimit:4;stroke-dasharray:none;stroke-dashoffset:0;stroke-opacity:1" />
    <rect
       style="opacity:1;vector-effect:none;fill:#808080;fill-opacity:1;stroke:none;stroke-width:0.5;stroke-linecap:butt;stroke-linejoin:miter;stroke-miterlimit:4;stroke-dasharray:none;stroke-dashoffset:0;stroke-opacity:1"
       id="rect837"
       width="5.3454061"
       height="23.786987"
       x="-75.433556"
       y="132.03114"
       transform="rotate(-90)" />
    <rect
       transform="rotate(-90)"
       y="150.47275"
       x="-145.72546"
       height="23.786987"
       width="5.3454061"
       id="rect839"
       style="opacity:1;vector-effect:none;fill:#808080;fill-opacity:1;stroke:none;stroke-width:0.5;stroke-linecap:butt;stroke-linejoin:miter;stroke-miterlimit:4;stroke-dasharray:none;stroke-dashoffset:0;stroke-opacity:1" />
    <rect
       y="75.433556"
       x="150.47275"
       height="64.946495"
       width="5.3453903"
       id="rect841"
       style="opacity:1;vector-effect:none;fill:#808080;fill-opacity:1;stroke:none;stroke-width:0.5;stroke-linecap:butt;stroke-linejoin:miter;stroke-miterlimit:4;stroke-dasharray:none;stroke-dashoffset:0;stroke-opacity:1" />
    <rect
       style="opacity:1;vector-effect:none;fill:#808080;fill-opacity:1;stroke:none;stroke-width:0.5;stroke-linecap:butt;stroke-linejoin:miter;stroke-miterlimit:4;stroke-dasharray:none;stroke-dashoffset:0;stroke-opacity:1"
       id="rect843"
       width="5.3453903"
       height="64.946495"
       x="168.91434"
       y="75.433556" />
    <rect
       style="opacity:1;vector-effect:none;fill:#808080;fill-opacity:1;stroke:none;stroke-width:0.5;stroke-linecap:butt;stroke-linejoin:miter;stroke-miterlimit:4;stroke-dasharray:none;stroke-dashoffset:0;stroke-opacity:1"
       id="rect845"
       width="5.3454061"
       height="23.786987"
       x="-75.433556"
       y="168.91434"
       transform="rotate(-90)" />
    <rect
       transform="rotate(-90)"
       y="21.381561"
       x="-75.433556"
       height="23.786987"
       width="5.3454061"
       id="rect847"
       style="opacity:1;vector-effect:none;fill:#808080;fill-opacity:1;stroke:none;stroke-width:0.5;stroke-linecap:butt;stroke-linejoin:miter;stroke-miterlimit:4;stroke-dasharray:none;stroke-dashoffset:0;stroke-opacity:1" />
    <rect
       y="-508.53073"
       x="452.72458"
       height="78.384453"
       width="5.3453903"
       id="rect849"
       style="opacity:1;vector-effect:none;fill:#808080;fill-opacity:1;stroke:none;stroke-width:0.76605308;stroke-linecap:butt;stroke-linejoin:miter;stroke-miterlimit:4;stroke-dasharray:none;stroke-dashoffset:0;stroke-opacity:1"
       transform="matrix(1,0,0.90471733,-0.42601238,0,0)" />
    <rect
       style="opacity:1;vector-effect:none;fill:#808080;fill-opacity:1;stroke:none;stroke-width:0.76605308;stroke-linecap:butt;stroke-linejoin:miter;stroke-miterlimit:4;stroke-dasharray:none;stroke-dashoffset:0;stroke-opacity:1"
       id="rect851"
       width="5.3453903"
       height="78.384453"
       x="471.16617"
       y="-508.53073"
       transform="matrix(1,0,0.90471733,-0.42601238,0,0)" />
    <rect
       transform="matrix(-0.90471733,0.42601238,1,0,0,0)"
       y="452.72458"
       x="423.69492"
       height="23.786987"
       width="6.4514136"
       id="rect853"
       style="opacity:1;vector-effect:none;fill:#808080;fill-opacity:1;stroke:none;stroke-width:0.76605308;stroke-linecap:butt;stroke-linejoin:miter;stroke-miterlimit:4;stroke-dasharray:none;stroke-dashoffset:0;stroke-opacity:1" />
    <rect
       style="opacity:1;vector-effect:none;fill:#808080;fill-opacity:1;stroke:none;stroke-width:0.76605308;stroke-linecap:butt;stroke-linejoin:miter;stroke-miterlimit:4;stroke-dasharray:none;stroke-dashoffset:0;stroke-opacity:1"
       id="rect855"
       width="6.4514136"
       height="23.786987"
       x="508.53073"
       y="471.16617"
       transform="matrix(-0.90471733,0.42601238,1,0,0,0)" />
    <rect
       transform="matrix(-0.90471733,0.42601238,1,0,0,0)"
       y="489.60776"
       x="423.69489"
       height="23.786987"
       width="6.4514136"
       id="rect857"
       style="opacity:1;vector-effect:none;fill:#808080;fill-opacity:1;stroke:none;stroke-width:0.76605308;stroke-linecap:butt;stroke-linejoin:miter;stroke-miterlimit:4;stroke-dasharray:none;stroke-dashoffset:0;stroke-opacity:1" />
    <rect
       y="-508.53073"
       x="489.60776"
       height="78.384453"
       width="5.3453903"
       id="rect859"
       style="opacity:1;vector-effect:none;fill:#808080;fill-opacity:1;stroke:none;stroke-width:0.76605308;stroke-linecap:butt;stroke-linejoin:miter;stroke-miterlimit:4;stroke-dasharray:none;stroke-dashoffset:0;stroke-opacity:1"
       transform="matrix(1,0,0.90471733,-0.42601238,0,0)" />
    <rect
       style="opacity:1;vector-effect:none;fill:#808080;fill-opacity:1;stroke:none;stroke-width:0.76605308;stroke-linecap:butt;stroke-linejoin:miter;stroke-miterlimit:4;stroke-dasharray:none;stroke-dashoffset:0;stroke-opacity:1"
       id="rect861"
       width="5.3453903"
       height="78.384453"
       x="508.04935"
       y="-508.53073"
       transform="matrix(1,0,0.90471733,-0.42601238,0,0)" />
    <rect
       style="opacity:1;vector-effect:none;fill:#808080;fill-opacity:1;stroke:none;stroke-width:0.76605308;stroke-linecap:butt;stroke-linejoin:miter;stroke-miterlimit:4;stroke-dasharray:none;stroke-dashoffset:0;stroke-opacity:1"
       id="rect863"
       width="6.4514136"
       height="23.786987"
       x="508.53073"
       y="508.04935"
       transform="matrix(-0.90471733,0.42601238,1,0,0,0)" />
    <rect
       style="opacity:1;vector-effect:none;fill:#808080;fill-opacity:1;stroke:none;stroke-width:0.76605308;stroke-linecap:butt;stroke-linejoin:miter;stroke-miterlimit:4;stroke-dasharray:none;stroke-dashoffset:0;stroke-opacity:1"
       id="rect865"
       width="5.3453903"
       height="78.384453"
       x="526.49097"
       y="-508.53073"
       transform="matrix(1,0,0.90471733,-0.42601238,0,0)" />
    <rect
       y="-508.53073"
       x="544.93256"
       height="78.384453"
       width="5.3453903"
       id="rect867"
       style="opacity:1;vector-effect:none;fill:#808080;fill-opacity:1;stroke:none;stroke-width:0.76605308;stroke-linecap:butt;stroke-linejoin:miter;stroke-miterlimit:4;stroke-dasharray:none;stroke-dashoffset:0;stroke-opacity:1"
       transform="matrix(1,0,0.90471733,-0.42601238,0,0)" />
    <rect
       style="opacity:1;vector-effect:none;fill:#808080;fill-opacity:1;stroke:none;stroke-width:0.76605308;stroke-linecap:butt;stroke-linejoin:miter;stroke-miterlimit:4;stroke-dasharray:none;stroke-dashoffset:0;stroke-opacity:1"
       id="rect869"
       width="6.4514136"
       height="23.786987"
       x="423.69492"
       y="526.49097"
       transform="matrix(-0.90471733,0.42601238,1,0,0,0)" />
    <rect
       transform="matrix(-0.90471733,0.42601238,1,0,0,0)"
       y="544.93256"
       x="508.53073"
       height="23.786987"
       width="6.4514136"
       id="rect871"
       style="opacity:1;vector-effect:none;fill:#808080;fill-opacity:1;stroke:none;stroke-width:0.76605308;stroke-linecap:butt;stroke-linejoin:miter;stroke-miterlimit:4;stroke-dasharray:none;stroke-dashoffset:0;stroke-opacity:1" />
    <rect
       style="opacity:1;vector-effect:none;fill:#808080;fill-opacity:1;stroke:none;stroke-width:0.76605308;stroke-linecap:butt;stroke-linejoin:miter;stroke-miterlimit:4;stroke-dasharray:none;stroke-dashoffset:0;stroke-opacity:1"
       id="rect873"
       width="6.4514136"
       height="23.786987"
       x="423.69489"
       y="563.37421"
       transform="matrix(-0.90471733,0.42601238,1,0,0,0)" />
    <rect
       style="opacity:1;vector-effect:none;fill:#808080;fill-opacity:1;stroke:none;stroke-width:0.76605308;stroke-linecap:butt;stroke-linejoin:miter;stroke-miterlimit:4;stroke-dasharray:none;stroke-dashoffset:0;stroke-opacity:1"
       id="rect875"
       width="5.3453903"
       height="78.384453"
       x="563.37421"
       y="-508.53073"
       transform="matrix(1,0,0.90471733,-0.42601238,0,0)" />
    <rect
       y="-508.53073"
       x="581.8158"
       height="78.384453"
       width="5.3453903"
       id="rect877"
       style="opacity:1;vector-effect:none;fill:#808080;fill-opacity:1;stroke:none;stroke-width:0.76605308;stroke-linecap:butt;stroke-linejoin:miter;stroke-miterlimit:4;stroke-dasharray:none;stroke-dashoffset:0;stroke-opacity:1"
       transform="matrix(1,0,0.90471733,-0.42601238,0,0)" />
    <rect
       transform="matrix(-0.90471733,0.42601238,1,0,0,0)"
       y="581.8158"
       x="508.53073"
       height="23.786987"
       width="6.4514136"
       id="rect879"
       style="opacity:1;vector-effect:none;fill:#808080;fill-opacity:1;stroke:none;stroke-width:0.76605308;stroke-linecap:butt;stroke-linejoin:miter;stroke-miterlimit:4;stroke-dasharray:none;stroke-dashoffset:0;stroke-opacity:1" />
    <rect
       style="opacity:1;vector-effect:none;fill:#808080;fill-opacity:1;stroke:none;stroke-width:0.76605308;stroke-linecap:butt;stroke-linejoin:miter;stroke-miterlimit:4;stroke-dasharray:none;stroke-dashoffset:0;stroke-opacity:1"
       id="rect881"
       width="6.4514136"
       height="23.786987"
       x="508.53073"
       y="434.28296"
       transform="matrix(-0.90471733,0.42601238,1,0,0,0)" />
    <text
       xml:space="preserve"
       style="font-style:normal;font-variant:normal;font-weight:normal;font-stretch:normal;font-size:10.58333302px;line-height:1.25;font-family:arial;-inkscape-font-specification:arial;font-variant-ligatures:normal;font-variant-position:normal;font-variant-caps:normal;font-variant-numeric:normal;font-variant-alternates:normal;font-feature-settings:normal;text-indent:0;text-align:start;text-decoration:none;text-decoration-line:none;text-decoration-style:solid;text-decoration-color:#000000;letter-spacing:0px;word-spacing:0px;text-transform:none;writing-mode:lr-tb;direction:ltr;text-orientation:mixed;dominant-baseline:auto;baseline-shift:baseline;text-anchor:start;white-space:normal;shape-padding:0;opacity:1;vector-effect:none;fill:#000000;fill-opacity:1;stroke:none;stroke-width:0.26458332;stroke-linecap:butt;stroke-linejoin:miter;stroke-miterlimit:4;stroke-dasharray:none;stroke-dashoffset:0;stroke-opacity:1"
       x="-10.205352"
       y="160.55058"
       id="text885"><tspan
         sodipodi:role="line"
         id="tspan883"
         x="-10.205352"
         y="160.55058"
         style="stroke-width:0.26458332">To convert from top figure to bottom figure, </tspan><tspan
         sodipodi:role="line"
         x="-10.205352"
         y="173.77975"
         style="stroke-width:0.26458332"
         id="tspan887">use inkscape &quot;skew&quot; command in Transform menu</tspan></text>
    <path
       inkscape:connector-curvature="0"
       id="path5254-0"
       d="m 47.236879,20.955603 c -0.628923,0.366262 -1.377667,0.774382 -1.85883,1.43156 -0.481372,0.648807 -0.525324,1.414817 -0.01647,2.296984 0.509627,0.879028 1.202698,1.244243 2.009416,1.155294 0.806822,-0.08979 1.527729,-0.554625 2.157072,-0.910422 0.628923,-0.366262 1.166909,-0.627877 1.543007,-0.669736 0.37568,-0.04186 0.789033,0.05881 1.234721,0.826705 0.445792,0.774382 0.338007,1.200292 0.114064,1.504812 -0.223943,0.303474 -0.734616,0.617413 -1.363958,0.983674 -0.628924,0.366262 -1.377667,0.774382 -1.858726,1.43156 -0.481372,0.648806 -0.525324,1.414816 -0.01647,2.296984 0.509627,0.879028 1.202699,1.244243 2.009416,1.155294 0.806822,-0.08979 1.52773,-0.554625 2.157072,-0.910422 0.628923,-0.366262 1.166909,-0.627877 1.543008,-0.669736 0.375679,-0.04186 0.789032,0.05881 1.23472,0.826705 0.445793,0.774382 0.338007,1.200292 0.114064,1.504812 -0.223943,0.303474 -0.734616,0.617413 -1.363958,0.983674 -0.628924,0.366262 -1.377667,0.774382 -1.858726,1.43156 -0.481372,0.648806 -0.525323,1.414816 -0.01647,2.296984 0.496023,0.858098 0.950187,1.263079 1.564461,1.329006 0.614273,0.06582 1.217453,-0.293009 1.595017,-0.502302 0.377772,-0.219757 0.529509,-0.303473 0.721012,-0.282544 0.190456,0.02051 0.592297,0.230221 1.050229,1.015068 l 2.260881,3.9483 1.006696,-0.586019 -2.260881,-3.9483 c -0.497069,-0.868563 -0.938676,-1.24215 -1.552531,-1.308077 -0.614273,-0.06582 -1.229383,0.27208 -1.606946,0.491837 -0.377773,0.219757 -0.517999,0.324403 -0.708455,0.303474 -0.190456,-0.02051 -0.603808,-0.251151 -1.062159,-1.035997 -0.445792,-0.774382 -0.326496,-1.179363 -0.101873,-1.48493 0.223943,-0.303474 0.723105,-0.638341 1.352029,-1.004603 0.628923,-0.366262 1.389596,-0.753452 1.870655,-1.410631 0.481372,-0.648806 0.513813,-1.435745 0.0045,-2.317912 -0.509627,-0.879028 -1.190769,-1.224361 -1.997487,-1.134365 -0.806822,0.08979 -1.539659,0.533696 -2.169001,0.889493 -0.628924,0.366261 -1.15498,0.648806 -1.531078,0.690664 -0.37568,0.04186 -0.80159,-0.07943 -1.24665,-0.847634 -0.445793,-0.774381 -0.326496,-1.179362 -0.101873,-1.484929 0.223943,-0.303474 0.723105,-0.638342 1.352028,-1.004603 0.628924,-0.366262 1.389597,-0.753453 1.87076,-1.410631 0.481373,-0.648806 0.513813,-1.435745 0.0045,-2.317913 -0.509627,-0.879028 -1.190769,-1.22436 -1.997486,-1.134364 -0.806822,0.08979 -1.539764,0.533695 -2.169106,0.889492 -0.628924,0.366262 -1.15498,0.648807 -1.531078,0.690665 -0.37568,0.04186 -0.80159,-0.07943 -1.24665,-0.847634 -0.445793,-0.774382 -0.326496,-1.179363 -0.101863,-1.484929 0.223943,-0.303474 0.723105,-0.638342 1.352029,-1.004604 z"
       style="color:#000000;font-style:normal;font-variant:normal;font-weight:normal;font-stretch:normal;font-size:medium;line-height:normal;font-family:Sans;-inkscape-font-specification:Sans;text-indent:0;text-align:start;text-decoration:none;text-decoration-line:none;letter-spacing:normal;word-spacing:normal;text-transform:none;writing-mode:lr-tb;direction:ltr;baseline-shift:baseline;text-anchor:start;display:inline;overflow:visible;visibility:visible;fill:#cc0000;fill-opacity:1;fill-rule:nonzero;stroke:none;stroke-width:104.6461792px;marker:none;enable-background:accumulate"
       sodipodi:nodetypes="ccssscssscssscssscssscsccssscssscssscssscssscsscc" />
    <g
       id="g938"
       transform="matrix(1.1627352,0,0,1.1627352,37.602596,1.5884274)"
       style="fill:#cc0000">
      <text
         id="text5262-8"
         style="font-style:normal;font-weight:normal;font-size:13.80000019px;line-height:0%;font-family:'Cambria Math';text-align:start;text-anchor:start;fill:#cc0000"
         y="12.723365"
         x="0"
         xml:space="preserve">ℏ</text>
      <text
         id="text5264-4"
         style="font-style:normal;font-weight:normal;font-size:13.80000019px;line-height:0%;font-family:'Times New Roman';text-align:start;text-anchor:start;fill:#cc0000"
         y="12.723365"
         x="8.1000004"
         xml:space="preserve">ω</text>
    </g>
    <text
       xml:space="preserve"
       x="56.149017"
       y="16.382399"
       style="font-style:normal;font-weight:normal;font-size:16.04574585px;font-family:'Times New Roman';text-align:start;text-anchor:start;fill:#cc0000;stroke-width:1.16273522"
       id="text5266-9" />
    <text
       id="text930"
       style="font-style:normal;font-variant:normal;font-weight:normal;font-stretch:normal;font-size:16.04574394px;line-height:0%;font-family:'Times New Roman';-inkscape-font-specification:'Times New Roman, Normal';font-variant-ligatures:normal;font-variant-caps:normal;font-variant-numeric:normal;font-feature-settings:normal;text-align:start;writing-mode:lr-tb;text-anchor:start;fill:#cc0000;stroke-width:1.16273522"
       y="18.787937"
       x="11.206639"
       xml:space="preserve"><tspan
         sodipodi:role="line"
         id="tspan934"
         style="font-style:italic;font-variant:normal;font-weight:normal;font-stretch:normal;font-family:'Times New Roman';-inkscape-font-specification:'Times New Roman,  Italic';stroke-width:1.16273522"
         x="11.206639"
         y="18.787937">hν</tspan></text>
    <g
       id="g965">
      <path
         inkscape:connector-curvature="0"
         id="path5256-8"
         d="m 61.365809,39.330112 -0.939723,3.569481 -3.570528,-0.931351 6.859348,6.575966 -2.347946,-9.208863 z"
         style="color:#000000;font-style:normal;font-variant:normal;font-weight:normal;font-stretch:normal;font-size:medium;line-height:normal;font-family:sans-serif;text-indent:0;text-align:start;text-decoration:none;text-decoration-line:none;text-decoration-style:solid;text-decoration-color:#000000;letter-spacing:normal;word-spacing:normal;text-transform:none;writing-mode:lr-tb;direction:ltr;baseline-shift:baseline;text-anchor:start;white-space:normal;clip-rule:nonzero;display:inline;overflow:visible;visibility:visible;opacity:1;isolation:auto;mix-blend-mode:normal;color-interpolation:sRGB;color-interpolation-filters:linearRGB;solid-color:#000000;solid-opacity:1;fill:#cc0000;fill-opacity:1;fill-rule:evenodd;stroke:none;stroke-width:0.46509366pt;stroke-linecap:butt;stroke-linejoin:miter;stroke-miterlimit:4;stroke-dasharray:none;stroke-dashoffset:0;stroke-opacity:1;color-rendering:auto;image-rendering:auto;shape-rendering:auto;text-rendering:auto;enable-background:accumulate" />
      <path
         inkscape:connector-curvature="0"
         id="path940"
         d="m 47.236879,20.955603 c -0.628923,0.366262 -1.377667,0.774382 -1.85883,1.43156 -0.481372,0.648807 -0.525324,1.414817 -0.01647,2.296984 0.509627,0.879028 1.202698,1.244243 2.009416,1.155294 0.806822,-0.08979 1.527729,-0.554625 2.157072,-0.910422 0.628923,-0.366262 1.166909,-0.627877 1.543007,-0.669736 0.37568,-0.04186 0.789033,0.05881 1.234721,0.826705 0.445792,0.774382 0.338007,1.200292 0.114064,1.504812 -0.223943,0.303474 -0.734616,0.617413 -1.363958,0.983674 -0.628924,0.366262 -1.377667,0.774382 -1.858726,1.43156 -0.481372,0.648806 -0.525324,1.414816 -0.01647,2.296984 0.509627,0.879028 1.202699,1.244243 2.009416,1.155294 0.806822,-0.08979 1.52773,-0.554625 2.157072,-0.910422 0.628923,-0.366262 1.166909,-0.627877 1.543008,-0.669736 0.375679,-0.04186 0.789032,0.05881 1.23472,0.826705 0.445793,0.774382 0.338007,1.200292 0.114064,1.504812 -0.223943,0.303474 -0.734616,0.617413 -1.363958,0.983674 -0.628924,0.366262 -1.377667,0.774382 -1.858726,1.43156 -0.481372,0.648806 -0.525323,1.414816 -0.01647,2.296984 0.496023,0.858098 0.950187,1.263079 1.564461,1.329006 0.614273,0.06582 1.217453,-0.293009 1.595017,-0.502302 0.377772,-0.219757 0.529509,-0.303473 0.721012,-0.282544 0.190456,0.02051 0.592297,0.230221 1.050229,1.015068 l 2.260881,3.9483 1.006696,-0.586019 -2.260881,-3.9483 c -0.497069,-0.868563 -0.938676,-1.24215 -1.552531,-1.308077 -0.614273,-0.06582 -1.229383,0.27208 -1.606946,0.491837 -0.377773,0.219757 -0.517999,0.324403 -0.708455,0.303474 -0.190456,-0.02051 -0.603808,-0.251151 -1.062159,-1.035997 -0.445792,-0.774382 -0.326496,-1.179363 -0.101873,-1.48493 0.223943,-0.303474 0.723105,-0.638341 1.352029,-1.004603 0.628923,-0.366262 1.389596,-0.753452 1.870655,-1.410631 0.481372,-0.648806 0.513813,-1.435745 0.0045,-2.317912 -0.509627,-0.879028 -1.190769,-1.224361 -1.997487,-1.134365 -0.806822,0.08979 -1.539659,0.533696 -2.169001,0.889493 -0.628924,0.366261 -1.15498,0.648806 -1.531078,0.690664 -0.37568,0.04186 -0.80159,-0.07943 -1.24665,-0.847634 -0.445793,-0.774381 -0.326496,-1.179362 -0.101873,-1.484929 0.223943,-0.303474 0.723105,-0.638342 1.352028,-1.004603 0.628924,-0.366262 1.389597,-0.753453 1.87076,-1.410631 0.481373,-0.648806 0.513813,-1.435745 0.0045,-2.317913 -0.509627,-0.879028 -1.190769,-1.22436 -1.997486,-1.134364 -0.806822,0.08979 -1.539764,0.533695 -2.169106,0.889492 -0.628924,0.366262 -1.15498,0.648807 -1.531078,0.690665 -0.37568,0.04186 -0.80159,-0.07943 -1.24665,-0.847634 -0.445793,-0.774382 -0.326496,-1.179363 -0.101863,-1.484929 0.223943,-0.303474 0.723105,-0.638342 1.352029,-1.004604 z"
         style="color:#000000;font-style:normal;font-variant:normal;font-weight:normal;font-stretch:normal;font-size:medium;line-height:normal;font-family:Sans;-inkscape-font-specification:Sans;text-indent:0;text-align:start;text-decoration:none;text-decoration-line:none;letter-spacing:normal;word-spacing:normal;text-transform:none;writing-mode:lr-tb;direction:ltr;baseline-shift:baseline;text-anchor:start;display:inline;overflow:visible;visibility:visible;fill:#cc0000;fill-opacity:1;fill-rule:nonzero;stroke:none;stroke-width:104.6461792px;marker:none;enable-background:accumulate"
         sodipodi:nodetypes="ccssscssscssscssscssscsccssscssscssscssscssscsscc" />
    </g>
    <g
       id="g969">
      <path
         style="color:#000000;font-style:normal;font-variant:normal;font-weight:normal;font-stretch:normal;font-size:medium;line-height:normal;font-family:sans-serif;text-indent:0;text-align:start;text-decoration:none;text-decoration-line:none;text-decoration-style:solid;text-decoration-color:#000000;letter-spacing:normal;word-spacing:normal;text-transform:none;writing-mode:lr-tb;direction:ltr;baseline-shift:baseline;text-anchor:start;white-space:normal;clip-rule:nonzero;display:inline;overflow:visible;visibility:visible;opacity:1;isolation:auto;mix-blend-mode:normal;color-interpolation:sRGB;color-interpolation-filters:linearRGB;solid-color:#000000;solid-opacity:1;fill:#cc0000;fill-opacity:1;fill-rule:evenodd;stroke:none;stroke-width:0.46509366pt;stroke-linecap:butt;stroke-linejoin:miter;stroke-miterlimit:4;stroke-dasharray:none;stroke-dashoffset:0;stroke-opacity:1;color-rendering:auto;image-rendering:auto;shape-rendering:auto;text-rendering:auto;enable-background:accumulate"
         d="m 34.906127,39.330112 -0.939723,3.569481 -3.570527,-0.931351 6.859347,6.575966 -2.347946,-9.208863 z"
         id="path942"
         inkscape:connector-curvature="0" />
      <path
         sodipodi:nodetypes="ccssscssscssscssscssscsccssscssscssscssscssscsscc"
         style="color:#000000;font-style:normal;font-variant:normal;font-weight:normal;font-stretch:normal;font-size:medium;line-height:normal;font-family:Sans;-inkscape-font-specification:Sans;text-indent:0;text-align:start;text-decoration:none;text-decoration-line:none;letter-spacing:normal;word-spacing:normal;text-transform:none;writing-mode:lr-tb;direction:ltr;baseline-shift:baseline;text-anchor:start;display:inline;overflow:visible;visibility:visible;fill:#cc0000;fill-opacity:1;fill-rule:nonzero;stroke:none;stroke-width:104.6461792px;marker:none;enable-background:accumulate"
         d="m 20.777197,20.955603 c -0.628923,0.366262 -1.377667,0.774382 -1.85883,1.43156 -0.481372,0.648807 -0.525324,1.414817 -0.01647,2.296984 0.509627,0.879028 1.202698,1.244243 2.009416,1.155294 0.806822,-0.08979 1.527729,-0.554625 2.157072,-0.910422 0.628923,-0.366262 1.166909,-0.627877 1.543007,-0.669736 0.37568,-0.04186 0.789033,0.05881 1.234721,0.826705 0.445792,0.774382 0.338007,1.200292 0.114064,1.504812 -0.223943,0.303474 -0.734616,0.617413 -1.363958,0.983674 -0.628924,0.366262 -1.377667,0.774382 -1.858726,1.43156 -0.481372,0.648806 -0.525323,1.414816 -0.01647,2.296984 0.509627,0.879028 1.202699,1.244243 2.009416,1.155294 0.806822,-0.08979 1.52773,-0.554625 2.157072,-0.910422 0.628923,-0.366262 1.166909,-0.627877 1.543008,-0.669736 0.375679,-0.04186 0.789032,0.05881 1.23472,0.826705 0.445793,0.774382 0.338007,1.200292 0.114064,1.504812 -0.223943,0.303474 -0.734616,0.617413 -1.363958,0.983674 -0.628924,0.366262 -1.377667,0.774382 -1.858726,1.43156 -0.481372,0.648806 -0.525323,1.414816 -0.01647,2.296984 0.496023,0.858098 0.950187,1.263079 1.564461,1.329006 0.614273,0.06582 1.217453,-0.293009 1.595017,-0.502302 0.377772,-0.219757 0.529509,-0.303473 0.721012,-0.282544 0.190456,0.02051 0.592297,0.230221 1.050229,1.015068 l 2.260881,3.9483 1.006696,-0.586019 -2.260881,-3.9483 c -0.497069,-0.868563 -0.938676,-1.24215 -1.552531,-1.308077 -0.614273,-0.06582 -1.229383,0.27208 -1.606946,0.491837 -0.377773,0.219757 -0.517999,0.324403 -0.708455,0.303474 -0.190456,-0.02051 -0.603808,-0.251151 -1.062159,-1.035997 -0.445792,-0.774382 -0.326496,-1.179363 -0.101873,-1.48493 0.223943,-0.303474 0.723105,-0.638341 1.352029,-1.004603 0.628923,-0.366262 1.389596,-0.753452 1.870655,-1.410631 0.481372,-0.648806 0.513813,-1.435745 0.0045,-2.317912 -0.509627,-0.879028 -1.190769,-1.224361 -1.997487,-1.134365 -0.806822,0.08979 -1.539659,0.533696 -2.169001,0.889493 -0.628924,0.366261 -1.15498,0.648806 -1.531078,0.690664 -0.37568,0.04186 -0.80159,-0.07943 -1.24665,-0.847634 -0.445793,-0.774381 -0.326496,-1.179362 -0.101873,-1.484929 0.223943,-0.303474 0.723105,-0.638342 1.352028,-1.004603 0.628924,-0.366262 1.389597,-0.753453 1.87076,-1.410631 0.481373,-0.648806 0.513813,-1.435745 0.0045,-2.317913 -0.509627,-0.879028 -1.190769,-1.22436 -1.997486,-1.134364 -0.806822,0.08979 -1.539764,0.533695 -2.169106,0.889492 -0.628924,0.366262 -1.15498,0.648807 -1.531078,0.690665 -0.37568,0.04186 -0.80159,-0.07943 -1.24665,-0.847634 -0.445793,-0.774382 -0.326496,-1.179363 -0.101863,-1.484929 0.223943,-0.303474 0.723105,-0.638342 1.352029,-1.004604 z"
         id="path944"
         inkscape:connector-curvature="0" />
    </g>
    <text
       xml:space="preserve"
       style="font-style:normal;font-variant:normal;font-weight:normal;font-stretch:normal;font-size:10.58333302px;line-height:1.25;font-family:arial;-inkscape-font-specification:arial;font-variant-ligatures:normal;font-variant-position:normal;font-variant-caps:normal;font-variant-numeric:normal;font-variant-alternates:normal;font-feature-settings:normal;text-indent:0;text-align:start;text-decoration:none;text-decoration-line:none;text-decoration-style:solid;text-decoration-color:#000000;letter-spacing:0px;word-spacing:0px;text-transform:none;writing-mode:lr-tb;direction:ltr;text-orientation:mixed;dominant-baseline:auto;baseline-shift:baseline;text-anchor:start;white-space:normal;shape-padding:0;opacity:1;vector-effect:none;fill:#000000;fill-opacity:1;stroke:none;stroke-width:0.26458332;stroke-linecap:butt;stroke-linejoin:miter;stroke-miterlimit:4;stroke-dasharray:none;stroke-dashoffset:0;stroke-opacity:1"
       x="62.01762"
       y="26.713062"
       id="text885-5"><tspan
         sodipodi:role="line"
         x="62.01762"
         y="26.713062"
         style="stroke-width:0.26458332"
         id="tspan887-9">nice photon landing squiggles</tspan></text>
  </g>
</svg>
